<?xml version="1.0" encoding="utf-8"?>
<!-- Generated by IcoMoon.io -->
<!DOCTYPE svg PUBLIC "-//W3C//DTD SVG 1.1//EN" "http://www.w3.org/Graphics/SVG/1.1/DTD/svg11.dtd">
<svg version="1.1" xmlns="http://www.w3.org/2000/svg" xmlns:xlink="http://www.w3.org/1999/xlink" width="15" height="14" viewBox="0 0 15 14">
<path d="M12.6 14h-12.1c-0.3 0-0.5-0.2-0.5-0.5v-11c0-0.3 0.2-0.5 0.5-0.5h4l-1.5 2h-1v8h9v-1l2-2v4.5c0 0.3-0.2 0.5-0.4 0.5v0z"></path>
<path d="M9.1 3c-3 0-5.4 1.8-5.1 4.8 0.2 1.9 1.2 2.2 2 2.8-0.8-1.7 0.5-4.4 3.6-4.6 0.1 0 0.3 0 0.4 0v3l5-4.5-5-4.5v3c0 0-0.9 0-0.9 0z"></path>
</svg>
