<?xml version="1.0" encoding="utf-8"?>
<!-- Generated by IcoMoon.io -->
<!DOCTYPE svg PUBLIC "-//W3C//DTD SVG 1.1//EN" "http://www.w3.org/Graphics/SVG/1.1/DTD/svg11.dtd">
<svg version="1.1" xmlns="http://www.w3.org/2000/svg" xmlns:xlink="http://www.w3.org/1999/xlink" width="14" height="14" viewBox="0 0 14 14">
<path d="M7.001 14c-3.86 0-7.001-3.14-7.001-7 0-3.859 3.141-7 7.001-7s6.999 3.141 6.999 7c0 3.86-3.14 7-6.999 7zM7.001 1.7c-2.923 0-5.301 2.377-5.301 5.3 0 2.924 2.378 5.301 5.301 5.301 2.922 0 5.3-2.376 5.3-5.301 0-2.923-2.378-5.3-5.3-5.3z"></path>
<path d="M8 10.75v-1.5c0-0.068-0.025-0.126-0.074-0.176s-0.108-0.074-0.176-0.074h-1.5c-0.068 0-0.126 0.025-0.176 0.074s-0.074 0.108-0.074 0.176v1.5c0 0.068 0.025 0.126 0.074 0.176s0.108 0.074 0.176 0.074h1.5c0.068 0 0.126-0.025 0.176-0.074s0.074-0.108 0.074-0.176z"></path>
<path d="M7.131 8c1.618 0 2.93-1.216 2.93-2.563s-1.312-2.438-2.93-2.438c-2.366 0-2.845 1.281-2.925 2.339 0 0.109 0.092 0.135 0.217 0.135s1.478 0 1.547 0c0.083 0 0.198-0.009 0.24-0.145 0-0.668 1.859-0.751 1.859 0.108 0 0.431-0.406 0.872-0.937 0.905s-1.125 0.104-1.125 0.741c0 0.178 0 0.351 0 0.611s0.133 0.305 0.375 0.305 0.75 0 0.75 0z"></path>
</svg>
