<?xml version="1.0" encoding="utf-8"?>
<!-- Generated by IcoMoon.io -->
<!DOCTYPE svg PUBLIC "-//W3C//DTD SVG 1.1//EN" "http://www.w3.org/Graphics/SVG/1.1/DTD/svg11.dtd">
<svg version="1.1" xmlns="http://www.w3.org/2000/svg" xmlns:xlink="http://www.w3.org/1999/xlink" width="14" height="14" viewBox="0 0 14 14">
<path d="M13.2 2c0 0-0.8-1.1-1.5-1.4-2.2-1.2-4.9-0.4-6.1 1.7-0.7 1.2-0.8 2.6-0.3 3.8l-5.3 5.2v2.7h2.5v-1.5h1.5v-1.5h2l1.9-2.3c2.3 0.9 4.9-0.3 5.8-2.6 0.5-1.4 0.3-2.9-0.5-4.1zM12.1 3v0c0 0.8-0.6 1.4-1.4 1.4v0c-0.8 0-1.4-0.6-1.4-1.4s0.6-1.4 1.4-1.4c0.8-0.1 1.4 0.6 1.4 1.4v0z"></path>
</svg>
