<?xml version="1.0" encoding="utf-8"?>
<!-- Generated by IcoMoon.io -->
<!DOCTYPE svg PUBLIC "-//W3C//DTD SVG 1.1//EN" "http://www.w3.org/Graphics/SVG/1.1/DTD/svg11.dtd">
<svg version="1.1" xmlns="http://www.w3.org/2000/svg" xmlns:xlink="http://www.w3.org/1999/xlink" width="14" height="14" viewBox="0 0 14 14">
<path d="M13.053 3.509c0.625 1.072 0.937 2.244 0.937 3.512s-0.312 2.441-0.937 3.512-1.475 1.922-2.547 2.547-2.244 0.937-3.512 0.937-2.441-0.312-3.512-0.937-1.922-1.475-2.547-2.547c-0.622-1.072-0.934-2.244-0.934-3.512s0.312-2.441 0.937-3.512 1.475-1.919 2.547-2.544 2.244-0.937 3.512-0.937 2.441 0.312 3.512 0.937c1.069 0.625 1.919 1.472 2.544 2.544zM9.259 1.656c-0.719-0.309-1.475-0.466-2.263-0.466-0.791 0-1.544 0.156-2.263 0.466s-1.338 0.725-1.859 1.244c-0.519 0.519-0.934 1.138-1.244 1.859-0.309 0.719-0.466 1.475-0.466 2.263 0 0.791 0.156 1.544 0.466 2.263s0.725 1.338 1.244 1.859c0.519 0.519 1.137 0.934 1.859 1.244 0.719 0.309 1.475 0.466 2.263 0.466 0.791 0 1.544-0.156 2.263-0.466s1.338-0.725 1.859-1.244c0.519-0.519 0.934-1.138 1.244-1.859 0.309-0.719 0.466-1.475 0.466-2.263 0-0.791-0.156-1.544-0.466-2.263s-0.725-1.338-1.244-1.859c-0.519-0.519-1.141-0.934-1.859-1.244z"></path>
<path d="M2.969 9c0.738 1.481 2.269 2.5 4.034 2.5 1.762 0 3.294-1.019 4.031-2.5h-8.066z"></path>
</svg>
