<?xml version="1.0" encoding="utf-8"?>
<!-- Generated by IcoMoon.io -->
<!DOCTYPE svg PUBLIC "-//W3C//DTD SVG 1.1//EN" "http://www.w3.org/Graphics/SVG/1.1/DTD/svg11.dtd">
<svg version="1.1" xmlns="http://www.w3.org/2000/svg" xmlns:xlink="http://www.w3.org/1999/xlink" width="14" height="14" viewBox="0 0 14 14">
<path d="M5 1.531c0 0.828-0.672 1.5-1.5 1.5s-1.5-0.672-1.5-1.5c0-0.828 0.672-1.5 1.5-1.5s1.5 0.672 1.5 1.5z"></path>
<path d="M15 10.5c0 0.828-0.672 1.5-1.5 1.5s-1.5-0.672-1.5-1.5c0-0.828 0.672-1.5 1.5-1.5s1.5 0.672 1.5 1.5z"></path>
<path d="M3 9.5c0 0.828-0.672 1.5-1.5 1.5s-1.5-0.672-1.5-1.5c0-0.828 0.672-1.5 1.5-1.5s1.5 0.672 1.5 1.5z"></path>
<path d="M11.331 8.812l-1.028-0.7c0.116-0.35 0.181-0.722 0.181-1.109 0-0.753-0.237-1.45-0.647-2.022l1.2-1.225c0.284 0.156 0.613 0.247 0.963 0.247 1.103 0 2-0.897 2-2s-0.897-2.003-2-2.003c-1.103 0-2 0.897-2 2 0 0.394 0.113 0.759 0.309 1.069l-1.163 1.187c-0.591-0.463-1.338-0.741-2.147-0.741-0.463 0-0.906 0.091-1.313 0.256l-0.191-0.259c-0.184-0.25-0.516-0.322-0.734-0.156-0.222 0.163-0.253 0.5-0.072 0.75l0.131 0.178c-0.797 0.638-1.306 1.619-1.306 2.719 0 0.306 0.041 0.603 0.116 0.887l-0.038 0.016c-0.262 0.128-0.388 0.438-0.281 0.688s0.409 0.35 0.669 0.225l0.034-0.016c0.484 0.8 1.278 1.388 2.219 1.6l-0.059 0.575c-0.672 0.153-1.172 0.762-1.172 1.494 0 0.847 0.672 1.531 1.5 1.531s1.5-0.684 1.5-1.531c0-0.603-0.341-1.122-0.834-1.372l0.066-0.619c1.084-0.072 2.031-0.638 2.622-1.475l0.941 0.641c0.25 0.172 0.578 0.125 0.725-0.106s0.062-0.559-0.191-0.728zM12 0.937c0.587 0 1.062 0.475 1.062 1.062s-0.475 1.062-1.062 1.062-1.062-0.475-1.062-1.062 0.475-1.062 1.062-1.062zM6.5 13.281c-0.45 0-0.813-0.362-0.813-0.813s0.362-0.813 0.813-0.813 0.813 0.362 0.813 0.813-0.362 0.813-0.813 0.813zM7 8.906c-1.053 0-1.906-0.853-1.906-1.906s0.853-1.906 1.906-1.906 1.906 0.853 1.906 1.906-0.853 1.906-1.906 1.906z"></path>
</svg>
